<svg width="190" height="50" fill="none" xmlns="http://www.w3.org/2000/svg"><path d="M0 8.16h7.8v29.82H0V8.16Zm19.26 6.42c-2.24 0-4.18.44-5.82 1.32-1.64.84-2.96 1.88-3.96 3.12-1 1.24-1.7 2.44-2.1 3.6l-.06-3.3c.04-.48.2-1.18.48-2.1.28-.96.7-1.98 1.26-3.06.56-1.12 1.3-2.18 2.22-3.18.92-1.04 2.04-1.88 3.36-2.52 1.32-.64 2.86-.96 4.62-.96v7.08ZM45.802 38.7c-2.64 0-4.9-.46-6.78-1.38-1.84-.96-3.34-2.2-4.5-3.72a16.578 16.578 0 0 1-2.58-5.1c-.56-1.84-.84-3.64-.84-5.4 0-2.2.26-4.24.78-6.12.56-1.88 1.42-3.52 2.58-4.92 1.16-1.44 2.66-2.56 4.5-3.36 1.88-.8 4.16-1.2 6.84-1.2 3 0 5.7.66 8.1 1.98 2.4 1.32 4.3 3.16 5.7 5.52 1.44 2.32 2.16 5.02 2.16 8.1 0 3.16-.72 5.92-2.16 8.28a14.947 14.947 0 0 1-5.76 5.4c-2.4 1.28-5.08 1.92-8.04 1.92Zm-2.52-6.06c2.12 0 3.96-.4 5.52-1.2 1.6-.8 2.82-1.9 3.66-3.3.88-1.44 1.32-3.12 1.32-5.04 0-2.88-.92-5.2-2.76-6.96-1.8-1.76-4.38-2.64-7.74-2.64-2.12 0-4.06.38-5.82 1.14-1.72.76-3.08 1.86-4.08 3.3-1 1.4-1.5 3.12-1.5 5.16 0 1.92.46 3.6 1.38 5.04.92 1.4 2.24 2.5 3.96 3.3 1.72.8 3.74 1.2 6.06 1.2Zm-19.2-24.48h7.44l.36 7.92v33.9h-7.8V8.16ZM82.02 38.64c-2.96 0-5.66-.64-8.1-1.92-2.4-1.32-4.32-3.14-5.76-5.46-1.4-2.36-2.1-5.08-2.1-8.16 0-3.16.72-5.9 2.16-8.22 1.44-2.32 3.38-4.12 5.82-5.4 2.48-1.32 5.28-1.98 8.4-1.98 3.44 0 6.2.7 8.28 2.1 2.12 1.36 3.66 3.22 4.62 5.58s1.44 5 1.44 7.92c0 1.76-.28 3.56-.84 5.4-.56 1.8-1.42 3.48-2.58 5.04-1.16 1.52-2.68 2.76-4.56 3.72-1.88.92-4.14 1.38-6.78 1.38Zm2.52-6c2.36 0 4.4-.4 6.12-1.2 1.72-.8 3.04-1.92 3.96-3.36.92-1.44 1.38-3.1 1.38-4.98 0-2.04-.48-3.76-1.44-5.16-.92-1.44-2.24-2.52-3.96-3.24-1.68-.76-3.7-1.14-6.06-1.14-3.32 0-5.9.88-7.74 2.64-1.84 1.72-2.76 4.02-2.76 6.9 0 1.92.44 3.6 1.32 5.04.88 1.4 2.1 2.5 3.66 3.3 1.6.8 3.44 1.2 5.52 1.2ZM96 8.16h7.8v29.82h-7.26l-.18-1.14c-.08-.8-.16-1.8-.24-3-.08-1.2-.12-2.38-.12-3.54V8.16ZM110.859 8.16h7.8v29.82h-7.8V8.16Zm19.26 6.42c-2.24 0-4.18.44-5.82 1.32-1.64.84-2.96 1.88-3.96 3.12-1 1.24-1.7 2.44-2.1 3.6l-.06-3.3c.04-.48.2-1.18.48-2.1.28-.96.7-1.98 1.26-3.06.56-1.12 1.3-2.18 2.22-3.18.92-1.04 2.04-1.88 3.36-2.52 1.32-.64 2.86-.96 4.62-.96v7.08ZM133.017 8.16h23.16v6.06h-23.16V8.16Zm7.68-8.16h7.8v37.98h-7.8V0ZM159.933 28.08h7.2c.44 1.36 1.34 2.48 2.7 3.36 1.4.84 3.22 1.26 5.46 1.26 1.52 0 2.7-.14 3.54-.42.84-.28 1.42-.68 1.74-1.2.32-.56.48-1.18.48-1.86 0-.84-.26-1.48-.78-1.92-.52-.48-1.32-.86-2.4-1.14-1.08-.28-2.46-.54-4.14-.78-1.68-.28-3.3-.62-4.86-1.02-1.56-.4-2.94-.92-4.14-1.56-1.2-.68-2.16-1.52-2.88-2.52-.68-1.04-1.02-2.3-1.02-3.78 0-1.44.34-2.72 1.02-3.84.72-1.12 1.7-2.06 2.94-2.82 1.28-.76 2.76-1.34 4.44-1.74 1.72-.4 3.56-.6 5.52-.6 2.96 0 5.42.44 7.38 1.32 1.96.84 3.42 2.04 4.38 3.6 1 1.52 1.5 3.28 1.5 5.28h-6.9c-.32-1.48-.96-2.54-1.92-3.18-.96-.68-2.44-1.02-4.44-1.02-1.96 0-3.44.3-4.44.9-1 .6-1.5 1.42-1.5 2.46 0 .84.3 1.5.9 1.98.64.44 1.56.8 2.76 1.08 1.24.28 2.78.58 4.62.9 1.56.32 3.04.68 4.44 1.08 1.44.4 2.72.92 3.84 1.56 1.12.6 2 1.42 2.64 2.46.68 1 1.02 2.28 1.02 3.84 0 1.92-.56 3.54-1.68 4.86-1.08 1.32-2.64 2.34-4.68 3.06-2.04.68-4.48 1.02-7.32 1.02-2.52 0-4.7-.26-6.54-.78-1.8-.56-3.3-1.26-4.5-2.1-1.2-.88-2.14-1.8-2.82-2.76-.64-1-1.08-1.94-1.32-2.82-.24-.88-.32-1.6-.24-2.16Z" fill="#000"/></svg>